<svg xmlns="http://www.w3.org/2000/svg" style="background-color:#fff" width="691" height="201" viewBox="-0.5 -0.5 691 201"><rect x="10" y="70" width="120" height="60" rx="9" ry="9" fill="#fff2cc" stroke="#d6b656" pointer-events="all"/><text x="69.5" y="105.5" font-family="Helvetica" text-anchor="middle" font-size="14">图片</text><path d="M310 40h120v13.63" fill="none" stroke="#000" stroke-miterlimit="10" pointer-events="stroke"/><path d="m430 58.88-3.5-7 3.5 1.75 3.5-1.75Z" stroke="#000" stroke-miterlimit="10" pointer-events="all"/><path fill="#dae8fc" stroke="#6c8ebf" pointer-events="all" d="M200 10h110v60H200z"/><g font-family="Helvetica" text-anchor="middle" font-size="14"><text x="254.5" y="37">-sharp_yuv</text><text x="254.5" y="54">-m 5</text></g><path d="M310 160h120v-13.63" fill="none" stroke="#000" stroke-miterlimit="10" pointer-events="stroke"/><path d="m430 141.12 3.5 7-3.5-1.75-3.5 1.75Z" stroke="#000" stroke-miterlimit="10" pointer-events="all"/><path fill="#dae8fc" stroke="#6c8ebf" pointer-events="all" d="M200 130h110v60H200z"/><g font-family="Helvetica" text-anchor="middle" font-size="14"><text x="254.5" y="157">-lossless</text><text x="254.5" y="174">-z 8</text></g><path d="m130 100 65.17-55.86" fill="none" stroke="#000" stroke-miterlimit="10" pointer-events="stroke"/><path d="m199.15 40.73-3.04 7.21-.94-3.8-3.61-1.51Z" stroke="#000" stroke-miterlimit="10" pointer-events="all"/><path d="m130 100 65.17 55.86" fill="none" stroke="#000" stroke-miterlimit="10" pointer-events="stroke"/><path d="m199.15 159.27-7.59-1.9 3.61-1.51.94-3.8Z" stroke="#000" stroke-miterlimit="10" pointer-events="all"/><path d="M520 100h33.63" fill="none" stroke="#000" stroke-miterlimit="10" pointer-events="stroke"/><path d="m558.88 100-7 3.5 1.75-3.5-1.75-3.5Z" stroke="#000" stroke-miterlimit="10" pointer-events="all"/><path d="m430 60 90 40-90 40-90-40Z" fill="#dae8fc" stroke="#6c8ebf" stroke-miterlimit="10" pointer-events="all"/><text x="429.5" y="105.5" font-family="Helvetica" text-anchor="middle" font-size="14">选择体积小的</text><rect x="560" y="70" width="120" height="60" rx="9" ry="9" fill="#fff2cc" stroke="#d6b656" pointer-events="all"/><text x="619.5" y="105.5" font-family="Helvetica" text-anchor="middle" font-size="14">保存</text></svg>